<svg id="Component_285_1" data-name="Component 285 – 1" xmlns="http://www.w3.org/2000/svg" width="103.952" height="27.338" viewBox="0 0 103.952 27.338">
    <defs>
        <style>
            .cls-1{fill:#ff0049}.cls-2,.cls-3{fill:#253844;fill-rule:evenodd}.cls-3{fill:#7b9dae}
        </style>
    </defs>
    <circle id="Ellipse_118" data-name="Ellipse 118" class="cls-1" cx="6.743" cy="6.743" r="6.743" transform="translate(70.387)"/>
    <circle id="Ellipse_119" data-name="Ellipse 119" class="cls-1" cx="6.743" cy="6.743" r="6.743" transform="translate(70.387 13.486)"/>
    <g id="Group_2365" data-name="Group 2365" transform="translate(83.873)">
        <path id="Path_1765" data-name="Path 1765" class="cls-2" d="M1195.707 452.837h-6.066l6.144-26.973h6.066z" transform="translate(-1189.64 -425.865)"/>
        <path id="Path_1766" data-name="Path 1766" class="cls-2" d="M1251.783 452.837h-6.066l6.144-26.973h6.066z" transform="translate(-1237.847 -425.865)"/>
    </g>
    <g id="Group_2366" data-name="Group 2366" transform="translate(0 8.914)">
        <path id="Path_1767" data-name="Path 1767" class="cls-3" d="M686.861 531.022c-2.119 0-2.986-1.776-2.986-3.76 0-2.006.867-3.781 2.986-3.781s2.985 1.775 2.985 3.781c0 1.984-.87 3.76-2.985 3.76m0 3.24c4.388 0 7.732-2.571 7.732-7 0-4.451-3.344-7.026-7.732-7.026s-7.735 2.575-7.735 7.026c0 4.429 3.343 7 7.735 7z" transform="translate(-666.893 -515.907)"/>
        <path id="Path_1768" data-name="Path 1768" class="cls-3" d="M786.341 497.27h2.63v5.461c0 3.191 1 5.016 5.1 5.016a21.584 21.584 0 0 0 2.885-.255l-.154-3.012a8.569 8.569 0 0 1-1.4.177c-1.454 0-1.835-.822-1.835-2.442v-4.945h3.217v-3.242h-3.217v-4.636l-4.517 1.626v3.01h-2.705z" transform="translate(-759.062 -489.392)"/>
        <path id="Path_1769" data-name="Path 1769" class="cls-3" d="M975.323 507.537h4.593V500.9h.051l3.674 6.641h5.566l-5-7.257 4.623-6.154h-5.03l-3.828 5.641h-.051v-10.265l-4.593 1.605z" transform="translate(-921.525 -489.49)"/>
        <path id="Path_1770" data-name="Path 1770" class="cls-3" d="M591.948 507.537h4.593V500.9h.052l3.676 6.641h5.565l-5-7.257 4.624-6.154h-5.027l-3.833 5.641h-.052v-10.265l-4.593 1.527z" transform="translate(-591.948 -489.49)"/>
        <path id="Path_1771" data-name="Path 1771" class="cls-3" d="M870.272 529.109c0-1.3 1.242-1.8 2.82-1.8.7 0 1.367.053 1.964.08a3.048 3.048 0 0 1-2.869 3.2c-1.086 0-1.915-.55-1.915-1.485m9.38 4.3a16.649 16.649 0 0 1-.257-3.2v-5.057c0-4.142-2.972-5.623-6.407-5.623a13.835 13.835 0 0 0-5.374.964l.078 3.178a8.658 8.658 0 0 1 4.288-1.019c1.678 0 3.05.5 3.075 2.348a13.384 13.384 0 0 0-2.172-.184c-2.48 0-6.949.494-6.949 4.638 0 2.942 2.377 4.27 5.038 4.27a4.609 4.609 0 0 0 4.263-2.446h.051c0 .7.076 1.405.1 2.135z" transform="translate(-827.486 -515.295)"/>
    </g>
</svg>
